<?xml version="1.0" standalone="no"?>
<!DOCTYPE svg PUBLIC "-//W3C//DTD SVG 20010904//EN"
 "http://www.w3.org/TR/2001/REC-SVG-20010904/DTD/svg10.dtd">
<svg version="1.0" xmlns="http://www.w3.org/2000/svg"
 width="900.000000pt" height="186.000000pt" viewBox="0 0 900.000000 186.000000"
 preserveAspectRatio="xMidYMid meet">
<metadata>
Created by potrace 1.10, written by Peter Selinger 2001-2011
</metadata>
<g transform="translate(0.000000,186.000000) scale(0.100000,-0.100000)"
fill="#000000" stroke="none">
<path d="M4305 1629 c-12 -19 -6 -1281 7 -1296 13 -16 134 -18 143 -3 9 14 14
832 7 1098 l-5 212 -73 0 c-41 0 -76 -5 -79 -11z"/>
<path d="M3505 1524 l-25 -27 0 -337 c0 -326 1 -338 21 -364 28 -36 81 -36
114 0 l25 27 0 333 0 332 -26 31 c-33 40 -75 42 -109 5z"/>
<path d="M2478 1499 c-16 -9 -18 -26 -18 -129 0 -135 1 -134 -90 -129 -28 2
-55 -2 -61 -8 -5 -5 -9 -37 -7 -69 l3 -59 75 -5 75 -5 6 -300 c3 -165 9 -311
14 -325 14 -42 52 -97 83 -118 87 -62 222 -67 335 -12 32 16 33 22 4 80 -24
49 -23 49 -118 35 -60 -9 -102 12 -129 65 -19 38 -20 56 -18 307 l3 268 124 3
c77 2 130 7 139 14 18 16 11 116 -9 129 -8 5 -56 7 -111 3 -53 -4 -108 -4
-122 0 -25 6 -25 7 -28 134 l-3 127 -65 2 c-36 2 -73 -2 -82 -8z"/>
<path d="M670 1250 c-92 -13 -245 -76 -256 -105 -6 -15 44 -115 60 -121 7 -3
31 5 52 18 56 33 101 49 169 59 194 29 322 -48 313 -187 l-3 -49 -205 -6
c-194 -5 -240 -11 -290 -40 -8 -5 -25 -13 -36 -18 -38 -17 -89 -78 -107 -128
-44 -122 -3 -245 106 -316 132 -86 324 -75 462 28 22 16 45 36 51 44 17 22 31
5 37 -45 2 -26 11 -50 18 -55 21 -13 123 -11 137 3 9 9 12 95 12 324 0 265 -3
320 -17 365 -32 102 -82 162 -169 203 -46 22 -72 27 -167 30 -61 3 -137 1
-167 -4z m338 -573 c3 -63 1 -71 -33 -122 -50 -75 -117 -107 -236 -113 -93 -5
-128 6 -181 56 -25 23 -28 33 -28 88 0 131 69 163 355 160 l120 -1 3 -68z"/>
<path d="M1675 1251 c-71 -11 -114 -29 -161 -67 -53 -42 -83 -100 -90 -172
-12 -114 32 -190 141 -241 36 -17 72 -31 81 -31 9 0 37 -6 63 -14 25 -8 82
-23 126 -32 116 -26 164 -61 165 -121 1 -94 -146 -152 -298 -117 -77 17 -196
66 -220 91 -15 14 -52 1 -52 -18 0 -5 -10 -23 -22 -39 -30 -42 -15 -68 63
-107 139 -69 280 -95 412 -73 106 17 161 42 216 100 43 43 56 70 76 161 11 44
-29 139 -75 181 -58 52 -192 108 -261 108 -33 1 -158 35 -192 53 -53 28 -71
76 -46 129 20 44 55 60 142 65 98 6 177 -7 250 -42 66 -31 85 -31 98 -2 5 12
17 35 25 50 9 16 13 34 10 42 -6 16 -66 47 -144 75 -60 21 -229 33 -307 21z"/>
<path d="M5050 1251 c-220 -40 -368 -230 -369 -476 -1 -157 57 -281 171 -367
71 -54 126 -77 228 -95 141 -25 278 7 387 88 77 57 82 73 41 116 -54 57 -63
58 -111 21 -62 -49 -95 -64 -169 -78 -103 -19 -212 12 -286 79 -39 37 -84 122
-86 165 l-1 31 361 1 c198 0 366 4 372 8 31 19 -5 230 -53 313 -35 61 -59 88
-115 127 -80 55 -117 67 -225 71 -55 2 -120 0 -145 -4z m213 -151 c76 -22 161
-137 155 -208 l-3 -37 -271 -3 c-209 -2 -274 1 -281 10 -17 21 24 113 70 159
89 89 203 116 330 79z"/>
<path d="M6606 1253 c-35 -6 -100 -45 -132 -80 -28 -31 -40 -25 -48 26 -3 22
-13 41 -22 45 -28 11 -120 6 -132 -6 -9 -9 -12 -124 -12 -455 0 -504 -8 -463
90 -463 96 0 90 -23 90 333 l0 312 26 38 c14 21 44 51 66 67 36 26 50 30 109
30 61 0 72 -3 110 -32 74 -58 78 -77 78 -429 1 -270 3 -308 17 -313 22 -9 127
-7 141 2 9 6 13 91 15 328 l3 321 28 37 c16 20 46 48 67 63 35 22 47 25 113
21 62 -3 80 -8 109 -30 77 -59 76 -56 80 -411 3 -269 5 -319 18 -327 17 -11
119 -13 144 -4 14 5 16 44 16 328 0 290 -2 327 -20 383 -31 101 -72 155 -144
195 -36 20 -55 23 -156 22 -102 0 -120 -3 -160 -24 -24 -14 -63 -44 -86 -67
-45 -47 -60 -52 -69 -24 -7 22 -47 59 -99 89 -31 19 -58 24 -125 27 -47 2 -99
1 -115 -2z"/>
<path d="M8125 1251 c-51 -9 -161 -63 -202 -101 -36 -32 -91 -109 -112 -155
-63 -141 -48 -358 32 -465 17 -22 26 -25 91 -26 39 -1 82 -5 95 -9 22 -7 23
-10 17 -71 -7 -63 -6 -64 24 -83 17 -10 65 -24 107 -31 150 -26 318 24 409
122 l46 49 -46 45 c-26 24 -51 44 -56 44 -5 0 -37 -22 -72 -48 -53 -40 -76
-50 -135 -61 -72 -14 -74 -14 -186 16 -31 8 -155 133 -178 178 -34 67 -26 74
88 77 l98 3 0 60 0 60 -95 3 c-52 2 -99 7 -104 12 -27 27 63 163 139 210 54
32 136 45 204 30 34 -7 66 -19 72 -26 6 -8 20 -14 30 -14 32 0 115 -117 121
-171 l3 -34 -107 -3 -107 -3 -3 73 -3 73 -72 3 -73 3 0 -76 0 -75 75 0 75 0 0
-54 c0 -33 5 -58 14 -65 9 -8 69 -11 192 -9 l179 3 3 65 c4 70 -18 169 -51
233 l-19 37 -82 0 c-50 0 -87 5 -94 12 -7 7 -12 39 -12 72 0 34 -4 67 -9 75
-16 26 -196 39 -296 22z"/>
<path d="M3295 1216 c-73 -48 -141 -128 -182 -215 -36 -75 -36 -77 -37 -211
l0 -135 39 -77 c64 -129 188 -234 305 -259 153 -33 154 -33 236 -14 71 16 107
30 154 56 8 5 24 13 35 18 41 19 138 129 161 181 3 8 12 29 19 45 64 144 59
259 -18 414 -37 75 -132 177 -195 209 -68 35 -72 33 -72 -51 0 -73 1 -74 38
-108 98 -88 146 -222 121 -335 -31 -140 -111 -235 -230 -271 -132 -39 -282 1
-363 98 -55 66 -76 128 -76 231 0 63 5 102 15 122 8 15 15 34 15 41 0 8 28 42
62 77 l62 63 0 75 c1 68 -1 75 -19 77 -11 1 -43 -12 -70 -31z"/>
<path d="M5880 544 c-58 -25 -74 -50 -75 -116 0 -52 3 -61 29 -83 24 -20 40
-25 86 -25 48 0 60 4 81 26 20 21 24 36 24 85 0 66 -14 87 -75 113 -31 12 -39
12 -70 0z"/>
</g>
</svg>
