<?xml version="1.0" standalone="no"?>
<!DOCTYPE svg PUBLIC "-//W3C//DTD SVG 20010904//EN"
 "http://www.w3.org/TR/2001/REC-SVG-20010904/DTD/svg10.dtd">
<svg version="1.0" xmlns="http://www.w3.org/2000/svg"
 width="300.000000pt" height="306.000000pt" viewBox="0 0 300.000000 306.000000"
 preserveAspectRatio="xMidYMid meet">
<metadata>
Created by potrace 1.10, written by Peter Selinger 2001-2011
</metadata>
<g transform="translate(0.000000,306.000000) scale(0.100000,-0.100000)"
fill="rgb(255 255 255 / 1%)" stroke="none">
<path d="M328 2935 c-57 -42 -68 -61 -68 -118 0 -34 9 -57 41 -107 l41 -64
-45 -43 c-39 -36 -52 -43 -87 -43 -51 0 -90 34 -90 79 0 30 29 61 57 61 20 0
15 -17 -7 -23 -44 -11 -31 -67 16 -67 53 0 73 67 29 96 -33 21 -93 13 -117
-17 -12 -14 -18 -38 -18 -71 0 -44 4 -54 35 -85 l36 -36 114 7 c139 7 162 2
109 -28 -108 -60 -113 -194 -12 -269 16 -12 49 -22 81 -25 101 -8 146 36 215
214 24 60 59 131 78 157 35 48 36 48 56 30 30 -27 62 -87 103 -193 62 -163
107 -210 198 -210 99 0 158 53 165 149 5 67 -21 113 -82 147 -35 20 -36 22
-14 26 13 2 65 0 116 -4 81 -8 98 -7 130 9 67 32 91 120 49 176 -17 24 -66 35
-104 25 -52 -14 -57 -74 -7 -97 56 -25 89 38 34 66 l-25 13 25 0 c34 0 50 -17
50 -55 0 -96 -106 -109 -187 -23 l-33 34 35 48 c82 115 72 177 -42 255 -37 25
-41 22 -17 -14 20 -31 12 -67 -23 -114 -38 -49 -111 -78 -228 -91 -54 -7 -111
-18 -126 -26 -24 -12 -32 -12 -62 1 -20 8 -76 19 -124 25 -103 11 -143 23
-196 58 -63 42 -85 111 -51 160 21 31 7 27 -48 -13z m44 -151 c40 -46 128 -80
238 -94 52 -7 110 -18 129 -26 30 -13 40 -12 80 1 25 8 85 19 134 24 132 15
207 55 259 140 20 31 22 32 34 16 18 -24 9 -58 -32 -127 -19 -31 -34 -64 -34
-75 0 -10 13 -35 30 -55 l30 -36 -38 -7 c-20 -3 -48 -17 -62 -30 -14 -12 -41
-26 -60 -30 -47 -10 -93 -39 -110 -70 -7 -14 -18 -24 -24 -22 -6 2 -24 36 -41
77 -33 79 -96 160 -125 160 -36 0 -81 -52 -126 -147 l-45 -94 -44 45 c-32 34
-54 47 -84 52 -23 4 -49 17 -62 30 -13 14 -40 27 -61 30 -21 4 -38 9 -38 11 0
2 11 19 25 37 33 44 31 70 -10 136 -33 51 -45 106 -28 124 5 4 15 -3 23 -15 8
-13 27 -38 42 -55z m138 -349 c32 -17 60 -61 60 -95 0 -55 -60 -110 -120 -110
-53 0 -110 57 -110 110 0 81 95 134 170 95z m657 -10 c27 -18 43 -53 43 -97 0
-21 -10 -40 -34 -64 -28 -28 -41 -34 -79 -34 -100 0 -151 116 -79 182 15 14
34 28 42 31 23 10 79 0 107 -18z"/>
<path d="M2064 2824 c13 -35 58 -196 54 -197 -1 -1 -29 -15 -60 -31 -66 -32
-128 -95 -160 -161 -12 -25 -26 -45 -30 -45 -4 0 -50 14 -101 30 -52 17 -96
30 -98 30 -2 0 -4 -79 -4 -175 0 -96 1 -175 2 -175 1 0 35 11 75 24 133 43
132 43 154 -6 34 -78 155 -188 206 -188 23 0 23 0 -12 -118 -16 -56 -30 -103
-30 -104 0 -2 79 -3 176 -3 151 0 174 2 170 15 -3 8 -18 58 -34 109 l-29 95
48 22 c64 30 135 102 165 169 l25 53 81 -25 c45 -14 92 -29 105 -34 14 -5 27
-9 31 -9 4 0 7 79 7 175 0 152 -2 175 -15 172 -8 -3 -55 -16 -104 -31 -48 -14
-93 -26 -100 -26 -6 0 -19 20 -29 44 -24 58 -103 138 -165 168 l-50 23 28 90
c15 50 31 98 35 108 7 16 -5 17 -170 17 -160 0 -177 -2 -171 -16z m278 -30 c3
-3 -4 -39 -15 -80 -25 -93 -20 -104 73 -167 42 -28 76 -60 97 -92 17 -28 43
-63 57 -80 l24 -30 84 21 c46 12 86 20 91 17 4 -2 7 -51 7 -108 0 -57 -3 -106
-7 -108 -5 -3 -45 5 -91 17 l-84 21 -24 -30 c-14 -16 -40 -52 -57 -80 -18 -27
-52 -64 -77 -82 -25 -17 -61 -45 -80 -62 l-35 -30 21 -80 c12 -45 19 -83 15
-86 -11 -6 -211 -8 -217 -2 -3 3 2 36 12 74 23 91 16 115 -44 150 -81 47 -112
74 -145 131 -18 30 -43 63 -57 74 -24 17 -28 17 -85 2 -97 -26 -90 -33 -90 91
0 124 -7 117 89 91 71 -19 90 -11 132 57 38 60 93 115 139 139 80 41 90 66 60
164 -23 77 -27 74 93 74 60 0 111 -3 114 -6z"/>
<path d="M2075 2532 c-39 -24 -103 -96 -116 -129 -21 -56 39 -93 152 -93 81 0
94 17 85 112 -10 113 -53 152 -121 110z m82 -99 c5 -49 9 -89 9 -90 -3 -4
-186 21 -186 26 0 3 17 28 38 56 31 41 100 94 123 95 3 0 10 -39 16 -87z"/>
<path d="M2300 2525 c-19 -20 -24 -39 -28 -100 -6 -99 6 -115 90 -115 75 0
125 20 134 55 9 37 -40 112 -100 153 -58 39 -66 39 -96 7z m103 -64 c33 -31
67 -79 67 -94 0 -3 -26 -8 -57 -11 -32 -4 -71 -9 -87 -12 l-29 -6 7 48 c4 27
9 68 12 91 6 40 8 42 28 32 11 -6 38 -28 59 -48z"/>
<path d="M2061 2239 c-77 -10 -116 -39 -106 -79 11 -42 58 -102 105 -132 84
-54 126 -22 136 103 7 74 6 76 -21 97 -15 12 -33 21 -39 21 -6 -1 -40 -5 -75
-10z m105 -46 c-3 -10 -8 -51 -12 -90 -4 -50 -11 -73 -20 -73 -33 0 -170 138
-153 154 4 4 124 21 172 25 13 1 17 -4 13 -16z"/>
<path d="M2301 2234 c-36 -25 -41 -46 -30 -119 10 -72 36 -115 69 -115 26 0
96 55 130 102 42 57 38 97 -10 119 -52 25 -133 31 -159 13z m122 -40 c26 -3
47 -11 47 -16 0 -22 -61 -96 -100 -122 -23 -15 -43 -26 -45 -24 -3 3 -25 151
-25 170 0 6 15 7 38 4 20 -3 58 -8 85 -12z"/>
<path d="M727 2403 c-46 -100 -87 -210 -87 -237 0 -9 -10 -21 -22 -27 -45 -23
-68 -52 -68 -84 0 -40 26 -64 76 -72 38 -6 39 -6 22 14 -38 42 -14 87 44 81
60 -6 72 -75 17 -103 -69 -36 -179 -5 -220 62 -11 18 -28 33 -37 33 -65 0
-144 50 -168 105 -12 26 -13 10 -14 -141 0 -157 2 -172 20 -189 20 -18 40 -71
60 -161 22 -97 80 -156 80 -80 0 45 36 161 65 212 25 43 63 74 90 74 12 0 15
-16 15 -92 l0 -93 40 -3 40 -2 0 90 c0 53 4 90 10 90 6 0 10 -35 10 -85 l0
-85 30 0 30 0 0 85 c0 71 3 85 16 85 14 0 16 -12 13 -85 l-4 -85 31 0 31 0 -1
82 c-1 57 3 82 12 85 9 4 12 -18 12 -86 l0 -91 40 0 40 0 0 95 c0 103 3 106
52 78 46 -28 118 -198 118 -280 0 -31 25 -30 46 2 9 14 25 62 35 106 20 86 38
128 63 148 13 11 16 41 16 185 l0 171 -19 -41 c-22 -49 -71 -82 -134 -90 -39
-6 -50 -12 -71 -44 -31 -47 -79 -70 -150 -70 -43 0 -61 5 -76 20 -46 46 -6
123 52 101 40 -15 50 -58 21 -87 -17 -17 -16 -17 21 -11 98 16 104 107 10 155
-14 7 -24 28 -32 64 -12 52 -104 274 -120 290 -5 5 -29 -35 -55 -89z m83 -65
c35 -79 72 -197 64 -209 -3 -5 -14 -9 -24 -9 -10 0 -31 -11 -47 -24 l-28 -24
-28 24 c-16 13 -39 24 -53 24 -13 0 -24 4 -24 9 0 40 90 271 106 271 3 0 18
-28 34 -62z m-419 -297 c25 -9 71 -38 102 -65 l57 -49 -38 -33 c-38 -33 -88
-119 -98 -174 -9 -45 -21 -37 -39 28 -9 31 -27 76 -41 99 -21 36 -24 54 -24
133 0 84 2 91 18 85 9 -5 38 -15 63 -24z m849 -67 c0 -74 -3 -90 -25 -122 -14
-20 -33 -63 -41 -94 -9 -32 -20 -58 -24 -58 -4 0 -20 32 -35 72 -19 49 -42 85
-71 113 l-42 41 56 50 c49 43 123 79 170 83 9 1 12 -22 12 -85z m-443 -7 c15
-25 57 -47 89 -47 39 0 46 -7 33 -32 -11 -20 -11 -20 -34 2 -22 20 -25 21 -46
7 -19 -14 -24 -14 -46 0 -22 14 -25 14 -43 -2 -19 -17 -21 -17 -39 0 -19 16
-21 16 -44 -9 l-24 -26 -11 26 c-16 34 -17 34 26 34 37 0 79 21 95 47 4 7 14
13 22 13 8 0 18 -6 22 -13z"/>
<path d="M2158 1419 c-34 -19 -42 -51 -39 -151 l3 -98 -34 0 c-40 0 -58 -15
-58 -47 0 -17 -8 -27 -27 -34 -16 -5 -49 -21 -74 -34 -25 -14 -69 -29 -97 -35
-59 -13 -76 -30 -69 -67 3 -19 -2 -36 -18 -58 -32 -41 -84 -153 -101 -217 -21
-82 -16 -234 12 -330 5 -17 25 -18 240 -18 232 0 235 0 229 -20 -4 -11 3 -50
15 -85 17 -52 27 -66 47 -71 13 -4 29 -2 36 5 18 18 47 103 47 139 l0 32 234
0 233 0 14 48 c9 29 14 94 14 172 -1 114 -4 131 -29 195 -16 39 -46 96 -67
129 -22 32 -39 61 -39 64 0 3 18 22 40 42 22 20 40 45 40 56 0 39 -17 49 -82
50 -35 0 -107 6 -160 14 l-97 14 -6 32 c-3 18 -3 44 1 58 11 44 -15 123 -47
149 -17 12 -45 34 -63 50 -35 28 -68 34 -98 16z m109 -51 c30 -22 59 -51 65
-62 7 -12 12 -60 13 -109 1 -48 5 -90 8 -93 11 -11 241 -41 283 -36 32 3 43 0
48 -13 8 -21 -15 -59 -50 -81 -30 -20 -27 -44 12 -101 41 -60 73 -128 89 -190
17 -66 18 -194 2 -273 l-12 -55 -235 -5 -235 -5 -3 -25 c-5 -55 -26 -131 -39
-141 -9 -9 -17 -8 -28 1 -17 15 -45 101 -45 142 l0 28 -230 0 -229 0 -11 37
c-21 72 -23 203 -6 277 19 79 65 181 102 225 18 22 23 36 18 55 -8 35 9 53 58
61 23 4 73 23 112 41 39 19 76 34 83 34 6 0 13 15 15 33 3 29 7 33 46 42 l43
9 -2 103 c-2 87 0 106 16 123 27 30 52 25 112 -22z"/>
<path d="M2180 1374 c-10 -11 -13 -48 -11 -130 l2 -114 -50 0 c-35 0 -51 -4
-51 -13 0 -33 55 -51 66 -22 4 8 12 15 20 15 8 0 14 -7 14 -15 0 -10 10 -15
30 -15 20 0 30 5 30 15 0 11 12 15 50 15 28 0 50 5 50 10 0 6 -9 10 -20 10
-19 0 -20 2 -5 30 18 35 20 99 3 135 -7 15 -26 34 -42 42 -17 9 -37 24 -44 34
-16 23 -26 24 -42 3z m100 -84 c18 -33 12 -105 -11 -134 -11 -14 -25 -26 -30
-26 -5 0 -9 45 -9 100 0 97 1 100 20 90 11 -6 24 -19 30 -30z"/>
<path d="M2195 1064 c-27 -3 -74 -9 -102 -15 -57 -11 -66 -26 -38 -63 17 -23
19 -69 5 -96 -8 -16 -8 -18 5 -14 20 8 35 66 28 109 -5 33 -5 33 43 41 118 20
414 1 414 -26 0 -17 -147 -63 -235 -74 -168 -22 -185 -27 -185 -55 0 -31 21
-39 125 -46 134 -8 140 -10 170 -50 23 -29 25 -39 17 -62 -7 -22 -5 -36 11
-65 11 -21 29 -40 39 -44 10 -3 18 -9 18 -14 0 -10 -75 17 -110 40 -45 30 -58
31 -79 4 l-20 -26 -40 33 -41 32 -72 -12 c-85 -14 -116 -31 -130 -72 -11 -32
-28 -39 -28 -11 -1 25 -31 57 -78 81 -38 19 -42 25 -42 59 0 27 9 51 30 79 24
33 29 46 21 60 -24 45 -41 87 -36 92 3 3 29 5 58 6 50 0 52 -1 71 -40 19 -39
20 -39 26 -15 3 14 3 32 -1 40 -4 8 -10 24 -13 34 -6 17 -14 18 -89 13 -45 -3
-95 -10 -110 -16 -24 -9 -26 -14 -17 -31 8 -14 17 -19 30 -15 20 6 46 -27 35
-45 -14 -23 -40 -8 -37 21 1 4 -7 5 -16 2 -35 -9 -102 -129 -132 -236 -13 -49
-10 -243 5 -279 7 -16 27 -18 239 -18 208 1 229 2 211 16 -16 12 -55 15 -214
14 l-195 -2 -10 24 c-5 13 -9 68 -9 123 0 115 20 185 79 273 l35 53 17 -21
c16 -20 19 -21 31 -6 17 20 31 21 31 1 0 -8 -4 -15 -9 -15 -4 0 -20 -12 -35
-26 -23 -24 -26 -35 -26 -94 l0 -68 39 -7 c59 -10 73 -25 78 -82 5 -45 3 -52
-16 -58 -24 -7 -51 -32 -51 -46 0 -5 19 -9 41 -9 48 0 89 35 89 76 0 17 9 30
30 42 31 18 41 36 14 25 -12 -4 -15 -1 -12 13 2 13 15 21 40 25 21 3 55 14 77
23 l39 18 36 -38 c51 -55 48 -124 -6 -143 -38 -13 -32 -35 11 -39 35 -4 73 27
86 68 4 12 18 25 31 30 28 11 33 30 5 23 -14 -3 -21 3 -30 27 -16 47 -4 55 35
21 18 -17 52 -36 74 -42 61 -18 104 -89 54 -89 -8 0 -14 -9 -14 -20 0 -17 7
-20 39 -20 30 0 42 5 55 24 15 23 14 27 -9 68 -14 24 -25 53 -25 66 0 12 -5
22 -12 22 -21 0 -78 51 -78 71 0 10 2 19 5 19 3 0 32 -21 64 -46 69 -54 92
-54 104 -2 8 34 4 45 -42 127 -52 93 -63 131 -36 131 9 0 15 -9 15 -23 0 -13
7 -32 15 -43 15 -18 15 -16 9 26 -3 25 -8 48 -11 53 -7 12 -40 8 -52 -7 -23
-28 -15 -72 28 -142 36 -62 54 -124 34 -124 -21 0 -81 54 -129 118 l-55 72
-135 0 c-79 0 -134 4 -134 10 0 19 40 30 105 30 88 0 200 24 282 61 70 31 133
73 133 89 0 5 -24 6 -53 3 -29 -3 -77 0 -107 6 -59 13 -229 21 -305 15z m-374
-192 c-5 -10 -16 -24 -24 -30 -8 -7 -22 -30 -32 -52 -10 -22 -20 -38 -22 -36
-6 6 25 65 54 104 26 35 39 43 24 14z m-124 -344 c-2 -18 -4 -6 -4 27 0 33 2
48 4 33 2 -15 2 -42 0 -60z m27 -147 c-7 -7 -24 50 -23 77 0 19 4 12 14 -23 7
-27 12 -52 9 -54z"/>
<path d="M1975 1023 c-39 -21 -16 -29 24 -8 17 8 31 18 31 20 0 10 -26 4 -55
-12z"/>
<path d="M2608 843 c-6 -21 34 -98 45 -87 3 3 3 -4 0 -17 -4 -12 -2 -20 3 -17
5 4 10 -4 10 -15 1 -12 6 -52 11 -89 9 -65 4 -157 -12 -208 -5 -17 -4 -22 3
-15 5 6 12 19 15 30 5 20 5 20 6 0 1 -32 -15 -53 -31 -37 -19 19 -378 17 -404
-3 -21 -16 -48 -15 276 -16 l165 -1 13 58 c21 95 10 215 -27 311 -18 45 -40
92 -50 104 -17 22 -18 22 -23 2z"/>
<path d="M2188 633 c-15 -4 -18 -17 -20 -76 -3 -136 5 -292 17 -326 l12 -35
16 49 c10 27 17 79 17 117 0 61 -2 68 -20 68 -13 0 -20 7 -20 20 0 11 9 28 20
37 15 13 20 30 20 68 0 56 -15 84 -42 78z"/>
<path d="M450 789 l-315 -629 627 0 c346 0 628 1 628 3 0 1 -141 284 -313 629
l-313 627 -314 -630z m590 -25 c146 -294 267 -539 268 -544 2 -7 -189 -10
-541 -10 l-545 0 272 545 c149 300 273 545 276 544 3 0 124 -241 270 -535z"/>
<path d="M650 996 c-63 -127 -114 -235 -115 -241 0 -5 21 -21 47 -34 l47 -24
39 35 c22 20 55 38 75 42 50 9 115 -10 147 -44 l26 -28 45 24 45 23 -118 237
c-65 131 -119 238 -121 239 -1 1 -54 -102 -117 -229z m216 -49 c57 -117 81
-174 74 -181 -7 -7 -18 -6 -33 4 -88 56 -160 59 -237 12 -50 -31 -80 -33 -80
-6 0 27 170 355 181 349 5 -4 48 -84 95 -178z"/>
<path d="M746 719 c-38 -11 -63 -35 -76 -75 -36 -107 98 -191 182 -115 29 26
33 35 33 80 0 41 -5 55 -25 76 -31 31 -76 44 -114 34z m87 -71 c17 -22 19 -33
11 -55 -21 -62 -104 -69 -128 -11 -16 37 -11 64 18 84 31 22 76 14 99 -18z"/>
<path d="M395 480 c-63 -126 -115 -231 -115 -232 0 -2 107 -2 237 -1 l237 3 2
99 3 99 -34 6 c-47 9 -102 72 -110 128 -4 24 -5 49 -3 56 2 6 -21 25 -49 42
l-53 30 -115 -230z m154 160 c11 -5 21 -26 25 -51 10 -60 29 -92 86 -141 49
-42 50 -44 50 -100 l0 -58 -180 0 c-120 0 -180 4 -180 11 0 13 169 349 176
349 3 0 13 -4 23 -10z"/>
<path d="M975 685 c-37 -22 -39 -27 -36 -65 5 -73 -65 -170 -122 -170 -15 0
-17 -13 -17 -102 l0 -103 229 0 228 0 -116 233 c-64 127 -118 232 -121 231 -3
0 -23 -11 -45 -24z m124 -208 c45 -90 81 -169 81 -175 0 -9 -41 -12 -167 -10
l-168 3 -3 39 c-5 59 4 82 42 104 40 24 85 95 93 149 6 41 20 66 33 58 5 -3
45 -78 89 -168z"/>
</g>
</svg>
